<svg width="114" height="40" viewBox="0 0 114 40" fill="none" xmlns="http://www.w3.org/2000/svg">
<path d="M0 8C0 3.58172 3.58172 0 8 0L106 0C110.418 0 114 3.58172 114 8V32C114 36.4183 110.418 40 106 40H8C3.58172 40 0 36.4183 0 32L0 8Z" fill="#C92071"/>
<path d="M34.9689 25V14.8182H41.8297V16.593H37.1216V19.0192H41.4767V20.794H37.1216V23.2251H41.8496V25H34.9689ZM46.3693 20.5852V25H44.2514V17.3636H46.2699V18.7109H46.3594C46.5284 18.2668 46.8118 17.9155 47.2095 17.657C47.6072 17.3951 48.0895 17.2642 48.6562 17.2642C49.1866 17.2642 49.6489 17.3802 50.0433 17.6122C50.4377 17.8442 50.7443 18.1757 50.9631 18.6065C51.1818 19.0341 51.2912 19.5445 51.2912 20.1378V25H49.1733V20.5156C49.1766 20.0483 49.0573 19.6837 48.8153 19.4219C48.5734 19.1567 48.2403 19.0241 47.8161 19.0241C47.531 19.0241 47.2791 19.0855 47.0604 19.2081C46.8449 19.3307 46.6759 19.5097 46.5533 19.745C46.4339 19.977 46.3726 20.2571 46.3693 20.5852ZM57.7722 17.3636V18.9545H53.1735V17.3636H57.7722ZM54.2175 15.5341H56.3354V22.6534C56.3354 22.849 56.3652 23.0014 56.4249 23.1108C56.4846 23.2169 56.5674 23.2914 56.6735 23.3345C56.7828 23.3776 56.9088 23.3991 57.0513 23.3991C57.1507 23.3991 57.2502 23.3909 57.3496 23.3743C57.449 23.3544 57.5253 23.3395 57.5783 23.3295L57.9114 24.9055C57.8053 24.9387 57.6562 24.9768 57.464 25.0199C57.2717 25.0663 57.0381 25.0945 56.763 25.1044C56.2525 25.1243 55.8051 25.0563 55.4206 24.9006C55.0395 24.7448 54.7428 24.5028 54.5307 24.1747C54.3186 23.8466 54.2142 23.4323 54.2175 22.9318V15.5341ZM59.9018 25V17.3636H61.9551V18.696H62.0346C62.1738 18.2221 62.4075 17.8641 62.7356 17.6222C63.0637 17.3769 63.4416 17.2543 63.8691 17.2543C63.9752 17.2543 64.0895 17.2609 64.2122 17.2741C64.3348 17.2874 64.4425 17.3056 64.5353 17.3288V19.2081C64.4359 19.1783 64.2984 19.1518 64.1227 19.1286C63.947 19.1054 63.7863 19.0938 63.6404 19.0938C63.3289 19.0938 63.0505 19.1617 62.8052 19.2976C62.5633 19.4302 62.371 19.6158 62.2285 19.8544C62.0893 20.093 62.0197 20.3681 62.0197 20.6797V25H59.9018ZM68.3391 25.1442C67.8519 25.1442 67.4177 25.0597 67.0366 24.8906C66.6554 24.7183 66.3538 24.4647 66.1317 24.13C65.913 23.7919 65.8036 23.371 65.8036 22.8672C65.8036 22.4429 65.8815 22.0866 66.0373 21.7983C66.1931 21.5099 66.4052 21.2779 66.6737 21.1023C66.9421 20.9266 67.247 20.794 67.5884 20.7045C67.9331 20.6151 68.2944 20.5521 68.6722 20.5156C69.1164 20.4692 69.4743 20.4261 69.7461 20.3864C70.0179 20.3433 70.2151 20.2803 70.3377 20.1974C70.4603 20.1146 70.5217 19.992 70.5217 19.8295V19.7997C70.5217 19.4848 70.4222 19.2412 70.2234 19.0689C70.0278 18.8965 69.7494 18.8104 69.3881 18.8104C69.007 18.8104 68.7037 18.8949 68.4783 19.0639C68.253 19.2296 68.1038 19.4384 68.0309 19.6903L66.0721 19.5312C66.1715 19.0672 66.3671 18.6662 66.6587 18.3281C66.9504 17.9867 67.3266 17.7249 67.7873 17.5426C68.2513 17.357 68.7882 17.2642 69.3981 17.2642C69.8223 17.2642 70.2283 17.3139 70.6161 17.4134C71.0072 17.5128 71.3536 17.6669 71.6552 17.8757C71.9601 18.0845 72.2004 18.353 72.3761 18.6811C72.5517 19.0059 72.6396 19.3954 72.6396 19.8494V25H70.631V23.9411H70.5714C70.4487 24.1797 70.2847 24.3902 70.0792 24.5724C69.8737 24.7514 69.6268 24.8923 69.3384 24.995C69.0501 25.0945 68.717 25.1442 68.3391 25.1442ZM68.9457 23.6825C69.2572 23.6825 69.5323 23.6212 69.771 23.4986C70.0096 23.3726 70.1969 23.2036 70.3327 22.9915C70.4686 22.7794 70.5366 22.5391 70.5366 22.2706V21.4602C70.4703 21.5033 70.3791 21.5431 70.2631 21.5795C70.1505 21.6127 70.0228 21.6442 69.8803 21.674C69.7378 21.7005 69.5953 21.7254 69.4528 21.7486C69.3103 21.7685 69.181 21.7867 69.065 21.8033C68.8164 21.8397 68.5993 21.8977 68.4137 21.9773C68.2281 22.0568 68.0839 22.1645 67.9812 22.3004C67.8784 22.433 67.8271 22.5987 67.8271 22.7976C67.8271 23.0859 67.9315 23.3063 68.1403 23.4588C68.3524 23.608 68.6209 23.6825 68.9457 23.6825ZM75.0327 25V17.3636H77.0859V18.696H77.1655C77.3047 18.2221 77.5384 17.8641 77.8665 17.6222C78.1946 17.3769 78.5724 17.2543 79 17.2543C79.1061 17.2543 79.2204 17.2609 79.343 17.2741C79.4657 17.2874 79.5734 17.3056 79.6662 17.3288V19.2081C79.5668 19.1783 79.4292 19.1518 79.2536 19.1286C79.0779 19.1054 78.9171 19.0938 78.7713 19.0938C78.4598 19.0938 78.1813 19.1617 77.9361 19.2976C77.6941 19.4302 77.5019 19.6158 77.3594 19.8544C77.2202 20.093 77.1506 20.3681 77.1506 20.6797V25H75.0327Z" fill="#F5F5F5"/>
</svg>
